<svg width="41" height="41" viewBox="0 0 41 41" fill="none" xmlns="http://www.w3.org/2000/svg">
<g clip-path="url(#clip0_26_31)">
<path d="M39.9241 31.6293L31.6256 26.0951C30.5725 25.3985 29.1608 25.6277 28.3823 26.6219L25.965 29.7299C25.6543 30.1395 25.0896 30.2583 24.6402 30.0087L24.1804 29.7552C22.6561 28.9244 20.7595 27.89 16.9382 24.0673C13.1168 20.2446 12.0804 18.3466 11.2495 16.8251L10.9974 16.3652C10.7443 15.9159 10.8609 15.3488 11.2707 15.0357L14.3766 12.6191C15.3704 11.8405 15.5999 10.4292 14.9041 9.37578L9.36989 1.07724C8.65674 0.0045121 7.22595 -0.317514 6.12192 0.346155L2.65177 2.43068C1.56143 3.07169 0.761485 4.10983 0.419682 5.32756C-0.829912 9.8806 0.110145 17.7385 11.6855 29.3152C20.8934 38.5224 27.7483 40.9984 32.4599 40.9984C33.5442 41.0031 34.6243 40.862 35.6711 40.579C36.8891 40.2376 37.9274 39.4375 38.568 38.3469L40.6546 34.8788C41.3192 33.7745 40.9973 32.3429 39.9241 31.6293ZM39.4773 34.1777L37.3955 37.6479C36.9355 38.4351 36.1887 39.0139 35.3116 39.2631C31.1084 40.4171 23.765 39.4612 12.6522 28.3484C1.53941 17.2356 0.583657 9.89293 1.73765 5.68905C1.98714 4.81089 2.56666 4.06315 3.35483 3.60245L6.82498 1.52065C7.30402 1.23241 7.92501 1.37212 8.23447 1.83763L11.2407 6.35104L13.7639 10.1355C14.0661 10.5924 13.9668 11.2048 13.5357 11.5429L10.4291 13.9595C9.48366 14.6824 9.21368 15.9905 9.79576 17.0286L10.0424 17.4768C10.9156 19.0783 12.0013 21.0706 15.9647 25.0334C19.9281 28.9961 21.9198 30.0818 23.5206 30.9549L23.9694 31.2022C25.0075 31.7842 26.3156 31.5143 27.0385 30.5689L29.4551 27.4623C29.7933 27.0314 30.4055 26.9322 30.8626 27.2341L39.1604 32.7683C39.6262 33.0775 39.7659 33.6988 39.4773 34.1777Z" fill="#2F73F2"/>
<path d="M23.232 6.83687C29.6438 6.844 34.8398 12.0401 34.847 18.4518C34.847 18.8292 35.1529 19.1351 35.5302 19.1351C35.9076 19.1351 36.2134 18.8292 36.2134 18.4518C36.2055 11.2857 30.3982 5.47831 23.232 5.47046C22.8547 5.47046 22.5488 5.77631 22.5488 6.15366C22.5488 6.53102 22.8547 6.83687 23.232 6.83687Z" fill="#46C4FF"/>
<path d="M23.232 10.9362C27.3807 10.9411 30.7427 14.3031 30.7476 18.4518C30.7476 18.8292 31.0535 19.135 31.4308 19.135C31.8082 19.135 32.114 18.8292 32.114 18.4518C32.1083 13.5487 28.1351 9.57543 23.232 9.56982C22.8547 9.56982 22.5488 9.87568 22.5488 10.253C22.5488 10.6304 22.8547 10.9362 23.232 10.9362Z" fill="#46C4FF"/>
<path d="M23.232 15.0357C25.1178 15.038 26.6459 16.5661 26.6482 18.4519C26.6482 18.8293 26.9542 19.1351 27.3314 19.1351C27.7087 19.1351 28.0146 18.8293 28.0146 18.4519C28.0116 15.8118 25.8721 13.6723 23.232 13.6693C22.8547 13.6693 22.5488 13.9752 22.5488 14.3525C22.5488 14.7299 22.8547 15.0357 23.232 15.0357Z" fill="#46C4FF"/>
</g>
<defs>
<clipPath id="clip0_26_31">
<rect width="41" height="41" fill="white"/>
</clipPath>
</defs>
</svg>
