<svg width="47" height="47" viewBox="0 0 47 47" fill="none" xmlns="http://www.w3.org/2000/svg">
<g clip-path="url(#clip0_30_1134)">
<path d="M23.5 7.66305C24.062 7.66305 24.5217 7.20327 24.5217 6.64131V6.13044C24.5217 5.56849 24.062 5.1087 23.5 5.1087C22.9381 5.1087 22.4783 5.56849 22.4783 6.13044V6.64131C22.4783 7.20327 22.9381 7.66305 23.5 7.66305Z" fill="white"/>
<path d="M23.5 39.337C22.9381 39.337 22.4783 39.7968 22.4783 40.3587V40.8696C22.4783 41.4315 22.9381 41.8913 23.5 41.8913C24.062 41.8913 24.5217 41.4315 24.5217 40.8696V40.3587C24.5217 39.7968 24.062 39.337 23.5 39.337Z" fill="white"/>
<path d="M6.64125 22.4783H6.13038C5.56842 22.4783 5.10864 22.9381 5.10864 23.5C5.10864 24.062 5.56842 24.5217 6.13038 24.5217H6.64125C7.20321 24.5217 7.66299 24.062 7.66299 23.5C7.66299 22.9381 7.20321 22.4783 6.64125 22.4783Z" fill="white"/>
<path d="M40.8695 22.4783H40.3587C39.7967 22.4783 39.3369 22.9381 39.3369 23.5C39.3369 24.062 39.7967 24.5217 40.3587 24.5217H40.8695C41.4315 24.5217 41.8913 24.062 41.8913 23.5C41.8913 22.9381 41.4315 22.4783 40.8695 22.4783Z" fill="white"/>
<path d="M11.9542 10.5239C11.5455 10.1152 10.9325 10.1152 10.5238 10.5239C10.1151 10.9326 10.1151 11.5456 10.5238 11.9543L10.8814 12.3119C11.0858 12.5163 11.3412 12.6185 11.5966 12.6185C11.8521 12.6185 12.1075 12.5163 12.3119 12.3119C12.7205 11.9032 12.7205 11.2902 12.3119 10.8815L11.9542 10.5239Z" fill="white"/>
<path d="M10.8814 34.6881L10.5238 35.0457C10.1151 35.4544 10.1151 36.0674 10.5238 36.4761C10.7282 36.6804 10.9836 36.7826 11.239 36.7826C11.4945 36.7826 11.7499 36.6804 11.9542 36.4761L12.3119 36.1185C12.7205 35.7098 12.7205 35.0968 12.3119 34.6881C11.9032 34.2794 11.2901 34.2794 10.8814 34.6881Z" fill="white"/>
<path d="M35.0457 10.5239L34.6881 10.8815C34.2794 11.2902 34.2794 11.9032 34.6881 12.3119C34.8925 12.5163 35.1479 12.6185 35.4033 12.6185C35.6588 12.6185 35.9142 12.5163 36.1185 12.3119L36.4762 11.9543C36.8848 11.5456 36.8848 10.9326 36.4762 10.5239C36.0675 10.1152 35.4544 10.1152 35.0457 10.5239Z" fill="white"/>
<path d="M24.5217 23.0913V13.7935C24.5217 13.2315 24.062 12.7717 23.5 12.7717C22.9381 12.7717 22.4783 13.2315 22.4783 13.7935V23.5C22.4783 23.7554 22.5804 24.0109 22.7848 24.2152L33.9728 35.4032C34.1772 35.6076 34.4326 35.7098 34.688 35.7098C34.9435 35.7098 35.1989 35.6076 35.4033 35.4032C35.812 34.9946 35.812 34.3815 35.4033 33.9728L24.5217 23.0913Z" fill="white"/>
<path d="M23.5 0C10.5239 0 0 10.5239 0 23.5C0 36.4761 10.5239 47 23.5 47C36.4761 47 47 36.4761 47 23.5C47 10.5239 36.4761 0 23.5 0ZM23.5 44.9565C11.6478 44.9565 2.04348 35.3522 2.04348 23.5C2.04348 11.6478 11.6478 2.04348 23.5 2.04348C35.3522 2.04348 44.9565 11.6478 44.9565 23.5C44.9565 35.3522 35.3522 44.9565 23.5 44.9565Z" fill="white"/>
</g>
<defs>
<clipPath id="clip0_30_1134">
<rect width="47" height="47" fill="white"/>
</clipPath>
</defs>
</svg>
