<svg width="49" height="49" viewBox="0 0 49 49" fill="none" xmlns="http://www.w3.org/2000/svg">
<path d="M46.9169 1.22656H12.6902C11.5403 1.2279 10.6085 2.15971 10.6072 3.30958V12.7501L9.04204 10.4024C8.32563 9.32179 6.88484 8.99756 5.77461 9.66726L2.55455 11.6032C1.50003 12.222 0.726459 13.2254 0.396394 14.4027C-0.778268 18.6798 0.0933239 26.0488 10.9095 36.8666C19.511 45.4592 25.9242 47.7734 30.3443 47.7734C31.3676 47.7781 32.387 47.6451 33.3749 47.378C34.5517 47.048 35.5551 46.2755 36.1751 45.2224L38.1086 41.999C38.7756 40.8896 38.4517 39.4518 37.3734 38.7355L29.663 33.5958C28.6053 32.8962 27.1876 33.1262 26.4053 34.1243L24.1605 37.0103C23.9259 37.3191 23.5003 37.4091 23.1607 37.2218L22.7334 36.9865C21.3276 36.2203 19.5779 35.2662 16.0442 31.7325C15.6618 31.3501 15.3155 30.9924 14.9904 30.6501H46.9169C48.0639 30.6509 48.9954 29.7238 48.9999 28.5768V3.30958C48.9985 2.15971 48.0667 1.2279 46.9169 1.22656ZM21.9517 38.4211L22.3667 38.649C23.4099 39.2323 24.7229 38.9616 25.4504 38.0135L27.6952 35.1275C27.9504 34.8024 28.4121 34.7275 28.757 34.9551L36.4674 40.0949C36.8177 40.3283 36.923 40.7957 36.7068 41.1568L34.7733 44.3802C34.3695 45.0726 33.7135 45.5818 32.9427 45.8015C29.0814 46.8634 22.3234 45.9649 12.0668 35.7075C1.81018 25.4501 0.915041 18.6929 1.97445 14.8348C2.19395 14.0641 2.70293 13.4082 3.39494 13.0042L6.61834 11.0699C6.97952 10.8541 7.44657 10.9593 7.68024 11.3092L12.8224 19.0196C13.0504 19.3644 12.9755 19.8265 12.65 20.0815L9.76315 22.327C8.81517 23.0543 8.54446 24.3671 9.12762 25.4099L9.35631 25.8249C10.1732 27.323 11.1885 29.1871 14.8898 32.8875C18.5912 36.588 20.4545 37.6041 21.9517 38.4211ZM47.3662 28.5769C47.3635 28.8227 47.1626 29.0199 46.917 29.018H13.5168C12.4558 27.8048 11.541 26.4713 10.7909 25.0448L10.5556 24.6159C10.368 24.2771 10.4577 23.8519 10.7664 23.6177L13.6532 21.3722C14.6516 20.5901 14.8817 19.1722 14.1817 18.1145L12.2408 15.2015V3.30958C12.2395 3.19001 12.2864 3.07495 12.3709 2.99042C12.4555 2.9059 12.5705 2.85899 12.6901 2.86033H46.9169C47.0364 2.85899 47.1515 2.9059 47.236 2.99042C47.3206 3.07495 47.3675 3.19001 47.3661 3.30958V28.5769H47.3662Z" fill="white"/>
<path d="M44.1036 5.0087L30.4513 15.3625C30.065 15.6432 29.5419 15.6432 29.1557 15.3625L15.5084 5.0087C15.1489 4.73598 14.6363 4.80643 14.3636 5.16598C14.0909 5.52553 14.1614 6.03815 14.5209 6.31078L28.1699 16.6637C29.1409 17.3811 30.4663 17.3811 31.4373 16.6637L45.0904 6.31078C45.2632 6.17983 45.3769 5.9855 45.4062 5.77069C45.4356 5.55588 45.3785 5.3382 45.2472 5.1656C44.9746 4.80672 44.4629 4.73655 44.1036 5.0087Z" fill="white"/>
<path d="M22.8322 16.7324L14.4643 25.6934C14.1566 26.0234 14.1747 26.5404 14.5047 26.8481C14.8347 27.1558 15.3517 27.1377 15.6593 26.8077L24.0274 17.8426C24.3038 17.5091 24.2718 17.0177 23.9544 16.7228C23.637 16.4279 23.1446 16.4321 22.8322 16.7324Z" fill="white"/>
<path d="M36.8286 16.7324C36.5209 16.4024 36.004 16.3842 35.6739 16.692C35.3439 16.9997 35.3258 17.5166 35.6335 17.8466L43.9991 26.8077C44.3067 27.1377 44.8237 27.1559 45.1537 26.8481C45.4837 26.5405 45.5019 26.0235 45.1941 25.6935L36.8286 16.7324Z" fill="white"/>
</svg>
