<svg version="1.2" xmlns="http://www.w3.org/2000/svg" viewBox="0 0 88 88" width="76" height="76">
	<title>Eye-svg</title>
	<defs>
		<clipPath clipPathUnits="userSpaceOnUse" id="cp1">
			<path d="m0 0h88v88h-88z"/>
		</clipPath>
	</defs>
	<style>
		.s0 { fill: #2f73f2 } 
	</style>
	<g id="Clip-Path" clip-path="url(#cp1)">
		<g id="Layer">
			<path id="Layer" class="s0" d="m44.1 27.1q0 0 0 0c0.7 0 1.3-0.6 1.3-1.3l0.3-13.1c0-0.7-0.6-1.3-1.3-1.3q0 0 0 0c-0.7 0-1.3 0.6-1.3 1.3l-0.2 13.1c-0.1 0.7 0.5 1.3 1.2 1.3z"/>
			<path id="Layer" class="s0" d="m30.5 28c0.2 0.5 0.7 0.9 1.2 0.9q0.2 0 0.4-0.1c0.7-0.2 1.1-1 0.9-1.6l-3.7-11c-0.2-0.6-0.9-1-1.6-0.8-0.7 0.2-1 1-0.8 1.6z"/>
			<path id="Layer" class="s0" d="m19.1 33.6c0.2 0.4 0.7 0.6 1.1 0.6q0.4 0 0.7-0.2c0.6-0.4 0.8-1.2 0.4-1.8l-6.5-10.3c-0.3-0.6-1.1-0.7-1.7-0.4-0.7 0.4-0.8 1.2-0.5 1.8z"/>
			<path id="Layer" class="s0" d="m9.4 44.3q0.5 0 0.8-0.3c0.6-0.5 0.6-1.3 0.1-1.9l-8.1-9c-0.4-0.5-1.2-0.6-1.8-0.1-0.5 0.5-0.5 1.3-0.1 1.8l8.1 9.1c0.3 0.2 0.6 0.4 1 0.4z"/>
			<path id="Layer" class="s0" d="m55.8 28.7q0.3 0.1 0.5 0.1c0.5 0 1-0.3 1.2-0.8l4.1-10.8c0.3-0.7-0.1-1.4-0.7-1.7-0.7-0.2-1.4 0.1-1.7 0.8l-4.1 10.7c-0.3 0.7 0.1 1.4 0.7 1.7z"/>
			<path id="Layer" class="s0" d="m66.9 33.7q0.3 0.2 0.7 0.2c0.4 0 0.8-0.2 1.1-0.6l6.9-9.9c0.4-0.6 0.2-1.4-0.3-1.8-0.6-0.4-1.4-0.3-1.8 0.3l-6.9 10c-0.4 0.6-0.3 1.4 0.3 1.8z"/>
			<path id="Layer" class="s0" d="m86.7 32.4c-0.4 0-0.7 0.1-0.9 0.4l-8.4 8.6c-0.5 0.5-0.5 1.3 0 1.8 0.3 0.2 0.6 0.4 0.9 0.4 0.4 0 0.7-0.2 1-0.4l8.3-8.6c0.3-0.3 0.4-0.6 0.4-0.9 0-0.7-0.6-1.3-1.3-1.3z"/>
			<path id="Layer" fill-rule="evenodd" class="s0" d="m81.5 53.5c0.7 1 0.7 2.2 0 3.1-8.4 12.5-22.3 20-37.4 20-9.8 0-19.2-3.2-27.1-9.1-0.5-0.5-0.7-1.3-0.2-1.8 0.4-0.6 1.2-0.7 1.8-0.3 3 2.3 6.2 4.1 9.7 5.5-4.1-4.1-6.5-9.7-6.5-15.6 0-6.4 2.7-12.2 7.1-16.3-8 3-15 8.6-20 16q-0.1 0.1 0 0.2c1.6 2.3 3.4 4.5 5.4 6.5 0.5 0.5 0.5 1.3 0 1.8-0.3 0.3-0.6 0.4-0.9 0.4-0.4 0-0.7-0.1-0.9-0.4-2.2-2.1-4.1-4.4-5.7-6.9-0.7-0.9-0.7-2.1 0-3.1 8.3-12.5 22.3-19.9 37.3-19.9 8.4 0 16.5 2.3 23.6 6.6 0.6 0.4 0.8 1.2 0.4 1.8-0.4 0.6-1.1 0.8-1.8 0.4q-3.3-2-6.9-3.4c4.4 4.1 7 9.9 7 16.3 0 5.9-2.3 11.5-6.4 15.6 7.8-3.1 14.6-8.6 19.4-15.7q0.1-0.1 0-0.2c-2.3-3.5-5.1-6.6-8.4-9.2-0.5-0.5-0.6-1.3-0.1-1.9 0.4-0.5 1.2-0.6 1.8-0.1 3.4 2.8 6.4 6.1 8.8 9.7zm-37.4 20.5q4.3 0 8.3-0.8c7-3.3 11.5-10.3 11.5-17.9 0-8.4-5.3-15.9-13.2-18.7q-3.3-0.5-6.6-0.5-3.3 0-6.5 0.5c-7.9 2.8-13.2 10.3-13.2 18.7 0 7.6 4.5 14.7 11.5 17.9q4 0.8 8.2 0.8z"/>
			<path id="Layer" class="s0" d="m53.1 60.7c1.1-1.7 1.7-3.6 1.7-5.6 0-5.9-4.8-10.6-10.7-10.6-5.8 0-10.6 4.7-10.6 10.6 0 5.8 4.8 10.6 10.6 10.6q1.9 0 3.7-0.7c0.7-0.2 1-1 0.8-1.6-0.3-0.7-1-1-1.7-0.8q-1.3 0.5-2.8 0.5c-4.4 0-8-3.6-8-8 0-4.5 3.6-8.1 8-8.1 4.5 0 8.1 3.6 8.1 8.1 0 1.5-0.5 3-1.3 4.2-0.3 0.6-0.2 1.4 0.4 1.8 0.7 0.4 1.4 0.2 1.8-0.4z"/>
		</g>
	</g>
</svg>