<svg width="74" height="74" viewBox="0 0 74 74" fill="none" xmlns="http://www.w3.org/2000/svg">
<g clip-path="url(#clip0_26_75)">
<path d="M32.6754 39.7251C35.7489 37.6066 37.5837 34.116 37.5837 30.3881C37.5837 27.2625 36.3388 24.3515 34.0782 22.1919C31.8189 20.0332 28.8512 18.923 25.7195 19.0661C19.8555 19.3339 15.1131 24.1422 14.9231 30.0128C14.8282 32.942 15.8482 35.756 17.7952 37.9365C18.3753 38.5862 18.5242 39.5037 18.1835 40.3305C16.323 44.8483 17.111 49.9826 20.2399 53.7298C24.871 59.2771 33.1547 60.0244 38.7057 55.3947C38.731 55.3736 38.7554 55.3512 38.7787 55.328C38.8164 55.2901 38.8595 55.2823 38.8889 55.2823C38.9184 55.2823 38.9615 55.2903 38.9994 55.3278L42.7819 59.1078C43.5204 59.8456 44.502 60.252 45.546 60.252H45.5473C46.592 60.2516 47.5738 59.8446 48.3119 59.1056V59.1057C49.8353 57.5811 49.8349 55.1009 48.3109 53.5768L41.4143 46.6804L41.5052 46.5895C42.0264 46.3073 42.5529 46.1135 43.1621 45.8905C44.7852 45.2952 47.0077 44.4796 49.5928 41.7552C52.1792 39.0293 52.8767 36.7653 53.3872 35.1082C53.8138 33.7252 54.0958 32.8113 55.517 31.3131C56.9383 29.816 57.8358 29.4867 59.1986 28.9866C60.2634 28.5971 61.5886 28.1123 63.0874 27.0691C63.2205 26.9763 63.3497 26.9968 63.4147 27.0173C63.4895 27.0409 63.5886 27.0968 63.6377 27.2301C64.7609 30.2817 65.3439 33.4903 65.3702 36.7668C65.4257 43.6286 63.0212 50.2613 58.5995 55.4435C58.2109 55.8989 58.2651 56.5831 58.7205 56.9716C58.9246 57.1457 59.1748 57.231 59.4235 57.231C59.7299 57.231 60.0343 57.102 60.2486 56.8506C65.0091 51.2714 67.5979 44.1327 67.5382 36.7494C67.5097 33.2225 66.8819 29.7678 65.6722 26.4811C65.4007 25.7436 64.8152 25.1854 64.066 24.9494C63.31 24.7112 62.502 24.8354 61.849 25.2898C60.5805 26.1726 59.4505 26.5859 58.4475 26.9529C56.9816 27.4908 55.7154 27.9555 53.9445 29.8208C52.174 31.6874 51.7761 32.9764 51.3141 34.4737C50.8185 36.0823 50.257 37.9056 48.0203 40.2631C46.4498 41.9182 45.0994 42.7344 43.8855 43.2752C43.9299 43.0409 43.9532 42.801 43.9532 42.5573C43.9532 41.761 43.7105 41.0022 43.2617 40.3634C44.0913 39.9267 44.9329 39.3175 45.9231 38.2737C47.6968 36.4051 48.0933 35.1149 48.5529 33.6187C49.0486 32.011 49.6103 30.1891 51.8476 27.8311C54.0871 25.471 55.8779 24.8161 57.4585 24.2382C58.7503 23.7645 59.9158 23.1001 61.0219 22.2068C62.0837 21.3493 62.2755 19.8229 61.4585 18.7317C56.1025 11.5778 47.9467 7.13072 39.0822 6.53077C38.4857 6.48885 37.9678 6.94167 37.9275 7.53902C37.887 8.13636 38.3384 8.65335 38.9358 8.69368C47.1696 9.25099 54.7462 13.3833 59.7231 20.031C59.8357 20.1814 59.8074 20.401 59.6598 20.5201C58.7415 21.2617 57.7773 21.8122 56.7128 22.2023C55.0889 22.7962 52.8645 23.6096 50.2748 26.3389C47.688 29.0651 46.9903 31.3278 46.4796 32.9845C46.0547 34.3678 45.7738 35.2818 44.3503 36.7813C43.1595 38.0368 42.3301 38.4752 41.2377 38.8954C39.93 38.5005 38.4503 38.8182 37.417 39.8497L34.8827 42.3856L34.8685 42.3998C34.5654 42.7006 34.1587 42.8545 33.7267 42.8369C33.2843 42.8176 32.8666 42.6128 32.5806 42.2749L32.3755 42.0327C32.0837 41.688 31.9558 41.2516 32.0153 40.8039C32.0743 40.3612 32.3087 39.9779 32.6754 39.7251ZM30.721 43.4342C31.4609 44.3362 32.4408 44.9515 33.6326 45.0032C34.6618 45.0475 35.6688 44.6601 36.399 43.9357L38.9498 41.3835C39.5977 40.7364 40.6514 40.736 41.2983 41.3827C42.954 43.0385 39.842 45.1885 38.7665 46.2624C36.5844 48.4447 33.6834 49.6463 30.5975 49.6463C29.9988 49.6463 29.5135 50.1316 29.5135 50.7303C29.5135 51.3291 29.9988 51.8143 30.5975 51.8143C34.0645 51.8143 37.3348 50.5363 39.8719 48.2045L46.7777 55.1103C47.4568 55.7892 47.4569 56.8944 46.7782 57.5737C46.4494 57.9028 46.0119 58.0842 45.5465 58.0843C45.5462 58.0843 45.546 58.0843 45.5459 58.0843C45.0807 58.0843 44.6433 57.9032 44.3142 57.5746L40.5315 53.7946C40.0926 53.3561 39.5094 53.1146 38.8889 53.1146C38.8885 53.1146 38.8879 53.1146 38.8873 53.1146C38.2858 53.1149 37.7192 53.3424 37.2855 53.7562C32.6523 57.5913 25.7607 56.9606 21.9039 52.3404C19.2924 49.213 18.6349 44.9275 20.188 41.1563C20.8477 39.5544 20.5504 37.7674 19.4122 36.4927C17.8378 34.7294 17.013 32.453 17.0899 30.0829C17.2435 25.336 21.0775 21.4483 25.8184 21.2318C28.3516 21.1176 30.7536 22.0138 32.5806 23.7593C34.4089 25.506 35.4159 27.8601 35.4159 30.388C35.4159 33.4029 33.9315 36.2263 31.445 37.9401C30.5806 38.5359 30.0052 39.4755 29.8663 40.5182C29.727 41.5651 30.0384 42.628 30.721 43.4342Z" fill="#2F73F2"/>
<path d="M37 0C31.7495 0 26.6725 1.08268 21.9102 3.21828C17.3114 5.28045 13.2388 8.21357 9.80529 11.936C9.39945 12.3761 9.42705 13.0619 9.86715 13.4677C10.3072 13.8737 10.9929 13.8458 11.3989 13.4059C14.6325 9.89996 18.4675 7.13796 22.7972 5.19648C27.2787 3.18691 32.0573 2.16797 37 2.16797C56.2065 2.16797 71.832 17.7935 71.832 37C71.832 56.2065 56.2065 71.832 37 71.832C17.7935 71.832 2.16797 56.2065 2.16797 37C2.16797 29.7862 4.3634 22.8605 8.51723 16.9716C8.86222 16.4823 8.74544 15.8061 8.2562 15.4609C7.76711 15.1159 7.0907 15.233 6.74556 15.722C2.33259 21.9784 0 29.3364 0 37C0 57.4019 16.5981 74 37 74C57.4019 74 74 57.4019 74 37C74 16.5981 57.4019 0 37 0Z" fill="#2F73F2"/>
<path d="M34.1781 6.59627C26.9648 7.29898 20.1333 10.7017 14.9417 16.1775C9.71833 21.6871 6.71208 28.7239 6.4765 35.9918C6.33717 40.2942 7.0789 44.4804 8.68118 48.4347C10.2245 52.2431 12.4877 55.6558 15.4084 58.5782C18.3289 61.5007 21.7404 63.7662 25.5478 65.3117C29.1942 66.7918 33.0377 67.5399 36.9885 67.5399C37.3211 67.5399 37.6549 67.5346 37.9888 67.524C44.9829 67.3016 51.4799 64.8078 56.7776 60.3125C57.234 59.9251 57.2901 59.2411 56.9027 58.7846C56.5154 58.3282 55.8313 58.272 55.3749 58.6595C50.4547 62.8344 44.4188 65.1504 37.9198 65.3572C33.9221 65.4838 30.0339 64.7932 26.3631 63.303C22.826 61.8671 19.6562 59.7618 16.9417 57.0458C14.2276 54.3293 12.1243 51.1584 10.6907 47.6205C9.20279 43.9485 8.51395 40.0596 8.64345 36.0619C8.86169 29.325 11.6572 22.7929 16.5151 17.669C21.3473 12.5719 27.6948 9.40582 34.3882 8.75384C34.9841 8.69588 35.42 8.16574 35.3621 7.56984C35.3041 6.97422 34.775 6.54121 34.1781 6.59627Z" fill="#2F73F2"/>
</g>
<defs>
<clipPath id="clip0_26_75">
<rect width="74" height="74" fill="white"/>
</clipPath>
</defs>
</svg>
