<svg width="75" height="74" viewBox="0 0 75 74" fill="none" xmlns="http://www.w3.org/2000/svg">
<g clip-path="url(#clip0_26_49)">
<path d="M56.5479 56.4309C56.084 56.045 55.3909 56.1035 54.9999 56.5615C53.1394 58.7404 50.418 59.9901 47.522 59.9901C46.3027 59.9901 45.3107 60.9689 45.3107 62.172V71.8321H37.0986C36.4919 71.8321 36 72.3175 36 72.9161C36 73.5148 36.4919 74.0001 37.0986 74.0001H45.6769C46.6866 74.0001 47.508 73.1897 47.508 72.1935V62.1718C47.508 62.1666 47.5167 62.1579 47.5334 62.1579C51.0675 62.1579 54.4014 60.6272 56.6804 57.9583C57.0712 57.5004 57.012 56.8165 56.5479 56.4309Z" fill="#2F73F2"/>
<path d="M57.5927 44.0082C60.4018 41.6759 61.88 38.9325 61.88 36.0231C61.88 33.4 60.6559 30.8803 58.3307 28.6916C59.0473 27.2119 59.4462 25.5926 59.486 23.9219C59.5625 20.7154 58.3553 17.6876 56.087 15.3963C53.8181 13.1045 50.7805 11.8423 47.5225 11.8423C47.5172 11.8423 47.5084 11.8336 47.5084 11.8284V1.80664C47.5084 0.810387 46.6871 0 45.6774 0H29.3236C28.3139 0 27.4925 0.810387 27.4925 1.80664V11.8283C27.4925 11.8335 27.4837 11.8422 27.467 11.8422C24.4499 11.8422 21.5688 12.9542 19.3544 14.9734C18.9088 15.3797 18.8814 16.0655 19.2934 16.5052C19.7051 16.9448 20.4002 16.972 20.8458 16.5654C22.653 14.9176 25.0045 14.0101 27.4785 14.0101C28.6978 14.0101 29.6898 13.0314 29.6898 11.8283V2.16797H45.3112V11.8283C45.3112 13.0314 46.3032 14.0101 47.5339 14.0101C50.184 14.0101 52.6634 15.0404 54.5152 16.911C56.3665 18.7811 57.3518 21.2529 57.2894 23.8708C57.2309 26.3262 56.2224 28.6491 54.4495 30.4114C52.6766 32.1738 50.3303 33.186 47.8426 33.2616C44.7402 33.3562 41.8514 32.0401 39.9135 29.6522C39.3214 28.9227 38.4419 28.5043 37.5005 28.5043C36.559 28.5043 35.6795 28.9227 35.0874 29.6522C33.1495 32.0401 30.2618 33.3575 27.1584 33.2616C24.6707 33.1861 22.3243 32.174 20.5514 30.4114C18.7786 28.649 17.7701 26.3261 17.7116 23.8708C17.6804 22.56 17.9107 21.2848 18.3961 20.0809C18.6204 19.5246 18.3452 18.8943 17.7815 18.673C17.2172 18.4516 16.5789 18.7234 16.3546 19.2795C15.7593 20.7558 15.4769 22.3178 15.5151 23.9217C15.5549 25.5923 15.9538 27.2118 16.6704 28.6913C14.3453 30.88 13.1211 33.3997 13.1211 36.0228C13.1211 38.9322 14.5993 41.6757 17.4084 44.0079C16.2286 45.8138 15.5669 47.902 15.5151 50.0779C15.4388 53.2845 16.6458 56.3123 18.9141 58.6035C21.183 60.8954 24.2205 62.1575 27.4786 62.1575C27.4839 62.1575 27.4927 62.1662 27.4927 62.1714V72.1934C27.4927 73.1896 28.314 74 29.3237 74H32.311C32.9177 74 33.4096 73.5147 33.4096 72.916C33.4096 72.3174 32.9177 71.832 32.311 71.832H29.6899V62.1717C29.6899 60.9686 28.6979 59.9899 27.4672 59.9899C24.8171 59.9899 22.3377 58.9596 20.4859 57.089C18.6346 55.2189 17.6494 52.7471 17.7118 50.1292C17.7702 47.6738 18.7788 45.3509 20.5515 43.5886C22.3244 41.8262 24.6708 40.814 27.1585 40.7384C30.2606 40.6428 33.1496 41.9599 35.0876 44.3478C35.6797 45.0773 36.5592 45.4957 37.5006 45.4957C38.4421 45.4957 39.3216 45.0773 39.9137 44.3478C41.8515 41.9599 44.7424 40.6454 47.8427 40.7384C50.3305 40.8139 52.6768 41.826 54.4496 43.5886C56.2224 45.351 57.2309 47.6739 57.2894 50.1292C57.3109 51.0318 57.2066 51.9269 56.9795 52.7896C56.827 53.369 57.1795 53.9607 57.7667 54.1112C58.3536 54.2617 58.9537 53.9139 59.1062 53.3345C59.3844 52.2772 59.5121 51.1817 59.4859 50.0783C59.4342 47.9023 58.7725 45.8141 57.5927 44.0082ZM47.9101 38.5713C44.1128 38.4554 40.5721 40.0677 38.1983 42.9926C37.9618 43.2842 37.6596 43.3276 37.5005 43.3276C37.3414 43.3276 37.0392 43.2841 36.8026 42.9926C34.4289 40.0675 30.888 38.4573 27.0909 38.5713C24.0389 38.664 21.1625 39.9033 18.9919 42.0612C18.9137 42.139 18.8393 42.2196 18.7635 42.2991C17.0445 40.8532 15.3182 38.728 15.3182 36.023C15.3182 34.1406 16.1858 32.2868 17.8357 30.6064C18.1851 31.0736 18.5702 31.5194 18.9917 31.9385C21.1624 34.0964 24.0386 35.3357 27.0907 35.4284C27.2182 35.4323 27.3449 35.4341 27.4717 35.4341C31.1248 35.434 34.5084 33.8339 36.8025 31.0072C37.0391 30.7155 37.3413 30.6721 37.5003 30.6721C37.6594 30.6721 37.9616 30.7156 38.1982 31.0072C40.5721 33.9323 44.1138 35.5427 47.91 35.4284C50.962 35.3357 53.8383 34.0964 56.0089 31.9385C56.4305 31.5194 56.8156 31.0736 57.165 30.6062C58.8148 32.2867 59.6825 34.1403 59.6825 36.0228C59.6825 38.7279 57.9561 40.8531 56.2372 42.299C56.1614 42.2195 56.087 42.1388 56.0089 42.0611C53.8385 39.9033 50.9622 38.664 47.9101 38.5713Z" fill="#2F73F2"/>
<path d="M24.2441 46.8809C24.2441 46.2822 23.7522 45.7969 23.1455 45.7969C22.5388 45.7969 22.0469 46.2822 22.0469 46.8809C22.0469 47.4795 22.5388 47.9648 23.1455 47.9648C23.7522 47.9648 24.2441 47.4795 24.2441 46.8809Z" fill="#2F73F2"/>
<path d="M23.1455 49.8506C22.5388 49.8506 22.0469 50.3359 22.0469 50.9346C22.0469 51.5332 22.5388 52.0186 23.1455 52.0186C23.7522 52.0186 24.2441 51.5332 24.2441 50.9346C24.2441 50.3359 23.7522 49.8506 23.1455 49.8506Z" fill="#2F73F2"/>
<path d="M26.0742 47.9648C26.0742 48.5635 26.5661 49.0488 27.1729 49.0488C27.7796 49.0488 28.2715 48.5635 28.2715 47.9648C28.2715 47.3662 27.7796 46.8809 27.1729 46.8809C26.5661 46.8809 26.0742 47.3662 26.0742 47.9648Z" fill="#2F73F2"/>
<path d="M22.0469 27.7339C22.0469 28.3325 22.5388 28.8179 23.1455 28.8179C23.7522 28.8179 24.2441 28.3325 24.2441 27.7339C24.2441 27.1352 23.7522 26.6499 23.1455 26.6499C22.5388 26.6499 22.0469 27.1352 22.0469 27.7339Z" fill="#2F73F2"/>
<path d="M23.1455 24.7642C23.7522 24.7642 24.2441 24.2788 24.2441 23.6802C24.2441 23.0815 23.7522 22.5962 23.1455 22.5962C22.5388 22.5962 22.0469 23.0815 22.0469 23.6802C22.0469 24.279 22.5388 24.7642 23.1455 24.7642Z" fill="#2F73F2"/>
<path d="M28.2715 26.6499C28.2715 26.0513 27.7796 25.5659 27.1729 25.5659C26.5661 25.5659 26.0742 26.0513 26.0742 26.6499C26.0742 27.2486 26.5661 27.7339 27.1729 27.7339C27.7796 27.7339 28.2715 27.2486 28.2715 26.6499Z" fill="#2F73F2"/>
</g>
<defs>
<clipPath id="clip0_26_49">
<rect width="75" height="74" fill="white"/>
</clipPath>
</defs>
</svg>
