<svg width="48" height="43" viewBox="0 0 48 43" fill="none" xmlns="http://www.w3.org/2000/svg">
<path d="M48 48.1914V9.84669C48 7.78649 46.2608 6.03809 44.1914 6.03809H33.4106C33.0576 2.65027 30.1792 0 26.6918 0C23.2043 0 20.3259 2.65027 19.9728 6.03809H-0.191406C-2.26318 6.03809 -4 7.77339 -4 9.84669V48.1914C-4 50.2915 -2.29152 52 -0.191406 52H44.1914C45.8114 52 48 50.4766 48 48.1914ZM31.8812 33.0653L46.4766 17.995V47.6605L31.8812 33.0653ZM26.6918 1.52344C29.5768 1.52344 31.924 3.86364 31.924 6.7402C31.924 8.79318 31.1108 11.6743 29.8018 14.2593C28.4538 16.9213 27.1717 18.1187 26.6918 18.1187C26.2328 18.1187 24.9721 17.0322 23.5426 14.1166C22.2772 11.5356 21.4595 8.64013 21.4595 6.7402C21.4596 3.86364 23.8067 1.52344 26.6918 1.52344ZM-2.47656 9.84669C-2.47656 9.49041 -2.3945 9.15291 -2.24845 8.85209L6.04473 17.1453L-2.47656 25.6665V9.84669ZM-2.47656 48.1914V35.675L11.049 22.1495L39.376 50.4766H-0.191406C-1.45149 50.4766 -2.47656 49.4514 -2.47656 48.1914ZM44.1914 50.4766H41.5307L11.5876 20.5336C11.2901 20.2362 10.8078 20.2362 10.5104 20.5336L-2.47656 33.5205V27.821L7.66059 17.6839C7.95807 17.3863 7.95807 16.9041 7.66059 16.6066L-1.1658 7.7802C-0.870047 7.64014 -0.539766 7.56153 -0.191406 7.56153H4.2228L26.2191 29.5577C26.5185 29.8569 27.0049 29.8551 27.3017 29.5524L36.9338 19.7285C37.6233 19.0252 36.5358 17.9589 35.846 18.6619L26.7524 27.9364L6.37735 7.56153H19.9728C20.1762 9.97577 21.205 12.8093 22.1747 14.7873C24.2459 19.0116 25.8937 19.6423 26.6918 19.6423C28.5798 19.6423 30.4461 16.3592 31.1609 14.9476C32.4291 12.4432 33.2433 9.75091 33.413 7.56153H44.1914C44.8899 7.56153 45.5158 7.87688 45.9352 8.3722L38.8676 15.5803C38.1792 16.2826 39.2644 17.3516 39.9554 16.6469L46.4766 9.99619V15.8052L30.2654 32.544C29.976 32.8427 29.9798 33.3184 30.2739 33.6125L46.1028 49.4415C45.6942 50.0642 44.9902 50.4766 44.1914 50.4766Z" fill="white"/>
<path d="M26.6918 10.4809C28.6529 10.4809 30.2485 8.88219 30.2485 6.91696C30.2485 4.95172 28.6529 3.35303 26.6918 3.35303C24.7305 3.35303 23.1349 4.95172 23.1349 6.91696C23.1349 8.88219 24.7306 10.4809 26.6918 10.4809ZM26.6918 4.87657C27.8129 4.87657 28.7251 5.79195 28.7251 6.91706C28.7251 8.04217 27.813 8.95755 26.6918 8.95755C25.5705 8.95755 24.6584 8.04217 24.6584 6.91706C24.6584 5.79195 25.5706 4.87657 26.6918 4.87657Z" fill="white"/>
</svg>
