<svg width="47" height="47" viewBox="0 0 47 47" fill="none" xmlns="http://www.w3.org/2000/svg">
<path d="M23.5 0C13.9264 0 6.13797 7.7884 6.13797 17.362C6.13797 20.5137 7.55144 23.9034 7.61068 24.0464C8.0672 25.13 8.96798 26.8131 9.61752 27.7997L21.5217 45.8367C22.0089 46.5762 22.7299 47 23.5 47C24.27 47 24.9911 46.5762 25.4782 45.8378L37.3835 27.7997C38.034 26.8131 38.9338 25.13 39.3903 24.0464C39.4495 23.9044 40.862 20.5148 40.862 17.362C40.862 7.7884 33.0736 0 23.5 0ZM37.507 23.2539C37.0995 24.2251 36.2611 25.7908 35.6779 26.6752L23.7727 44.7133C23.5378 45.0697 23.4632 45.0697 23.2283 44.7133L11.3231 26.6752C10.7399 25.7908 9.90144 24.2241 9.49394 23.2528C9.47658 23.211 8.18056 20.0909 8.18056 17.362C8.18056 8.91488 15.0529 2.04259 23.5 2.04259C31.9471 2.04259 38.8194 8.91488 38.8194 17.362C38.8194 20.095 37.5203 23.2232 37.507 23.2539Z" fill="white"/>
<path d="M23.5 8.17139C18.4313 8.17139 14.3083 12.2954 14.3083 17.363C14.3083 22.4307 18.4313 26.5547 23.5 26.5547C28.5687 26.5547 32.6916 22.4307 32.6916 17.363C32.6916 12.2954 28.5687 8.17139 23.5 8.17139ZM23.5 24.5121C19.5588 24.5121 16.3509 21.3052 16.3509 17.363C16.3509 13.4208 19.5588 10.214 23.5 10.214C27.4412 10.214 30.649 13.4208 30.649 17.363C30.649 21.3052 27.4412 24.5121 23.5 24.5121Z" fill="white"/>
</svg>
