<svg width="59" height="59" viewBox="0 0 59 59" fill="none" xmlns="http://www.w3.org/2000/svg">
<path d="M14.5065 27.0852C15.0247 23.1564 18.4977 19.6002 24.8503 16.5013L25.9942 15.9433L21.3043 7.28455L20.2455 7.82119C6.81162 14.631 0 24.2548 0 36.4256C0 40.625 1.33303 44.2519 3.96233 47.2058C6.62851 50.2008 9.86406 51.7195 13.5798 51.7195C16.9185 51.7195 19.7496 50.5306 21.9943 48.1855C24.2245 45.8555 25.3552 42.9613 25.3552 39.5834C25.3552 36.3914 24.213 33.5467 21.9603 31.1284C19.9735 28.9953 17.4699 27.6384 14.5065 27.0852ZM20.2317 46.4983C18.4403 48.3699 16.2644 49.2795 13.5798 49.2795C10.5486 49.2795 7.99888 48.0705 5.78511 45.5834C3.53412 43.0547 2.43986 40.0592 2.43986 36.4255C2.43986 30.8473 4.01062 25.8112 7.10823 21.4573C10.0639 17.3033 14.4969 13.6357 20.2957 10.5446L22.6452 14.8823C15.579 18.5852 11.9988 23.0365 11.9988 28.1255V29.2151L13.0814 29.3378C15.9978 29.6679 18.3178 30.7975 20.175 32.7913C22.0189 34.7708 22.9153 36.9927 22.9153 39.5832C22.9154 42.3498 22.0374 44.6116 20.2317 46.4983Z" fill="#2F73F2"/>
<path d="M47.6155 27.0887C48.1275 23.1567 51.5719 19.5987 57.8736 16.4995L59 15.9456L54.4266 7.28064L53.3573 7.82017C39.862 14.6296 33.0193 24.2539 33.0193 36.4256C33.0193 40.6276 34.3694 44.2565 37.0319 47.2112C39.7276 50.2026 42.9765 51.7194 46.6893 51.7194C50.0321 51.7194 52.8501 50.5282 55.0651 48.1788C57.261 45.8497 58.3745 42.9578 58.3745 39.5833C58.3745 36.3911 57.2323 33.5465 54.9798 31.1283C52.997 28.9998 50.5236 27.644 47.6155 27.0887ZM53.29 46.505C51.5296 48.3721 49.3706 49.2796 46.6893 49.2796C43.655 49.2796 41.089 48.0689 38.8444 45.578C36.5664 43.05 35.4591 40.0563 35.4591 36.4256C35.4591 30.8484 37.037 25.8131 40.1483 21.4597C43.1171 17.3065 47.5693 13.6395 53.3927 10.5488L55.6785 14.8798C48.6632 18.584 45.1086 23.0362 45.1086 28.1256V29.2128L46.1884 29.3375C49.0449 29.6672 51.3364 30.797 53.1946 32.7915C55.0385 34.7708 55.9346 36.9924 55.9346 39.5834C55.9347 42.3534 55.0696 44.6176 53.29 46.505Z" fill="#2F73F2"/>
</svg>
